<?xml version="1.0" encoding="utf-8" ?>
<svg xmlns="http://www.w3.org/2000/svg" xmlns:xlink="http://www.w3.org/1999/xlink" width="1024" height="1024">
	<path fill="#B8554F" transform="scale(2 2)" d="M196.829 202.317C186.131 146.353 208.702 96.2267 245.218 55.025C247.466 52.489 249.861 48.6305 253.446 48.0783C263.055 48.7396 258.157 62.466 257.595 69.1609C254.018 111.829 264.268 141.598 291.08 175.597C300.504 187.547 305.508 192.403 312.379 206.225C312.445 199.546 310.775 193.787 310.026 187.272C308.896 177.441 310.493 138.05 322.446 134.665C329.382 136.455 327.725 141.372 327.606 147.09C326.851 183.432 349.058 193.687 352.434 222.101C355.23 245.631 348.289 268.954 333.663 287.475L334.427 287.837C346.434 293.406 358.027 270.081 360.618 261.613C361.753 257.902 362.199 244.172 370.495 248.882C373.811 250.764 381.414 272.591 382.814 277.06C398.923 328.505 374.965 374.733 331.77 403C326.523 406.434 320.657 410.101 314.641 411.989C307.343 436.078 302.29 439.52 285.678 454.85C277.049 458.511 272.3 461.677 262.327 462.938C233.078 466.635 200.627 442.814 196.829 413.657C188.207 412.102 179.084 407.551 171.601 403.094C141.557 385.199 116.394 354.346 127.513 317.383C135.588 290.539 148.901 280.98 139.989 246.984C139.204 243.988 136.169 238.878 138.153 235.9C142.549 229.303 148.73 237.579 151.657 240.966C161.535 252.393 167.017 263.41 170.171 278.252C180.203 251.29 172.033 220.222 156.426 197.122C154.816 194.739 139.908 180.121 152.164 178.625C160.25 177.637 190.658 197.165 196.829 202.317ZM246.276 69.186C244.104 72.7559 241.27 75.9387 238.773 79.289C209.319 118.81 193.957 168.998 211.852 216.86C213.301 220.735 218.387 229.044 211.279 230.704C205.133 232.14 202.724 224.266 199.708 220.393C191.299 209.592 180.148 201.4 167.729 195.756C181.571 217.826 188.603 246.566 182.72 272.323C181.683 276.863 167.563 319.749 159.306 304.448C157.737 301.541 160.356 297.867 160.735 294.882C162.33 282.323 158.304 269.803 152.751 258.679C154.667 289.008 144.074 297.383 137.09 321.314C126.639 357.123 161.502 390.877 192.744 401.51C188.594 375.833 183.62 358.996 200.276 335.866C216.275 313.648 248.355 290.02 237.413 259.642C236.154 256.147 232.766 251.617 235.337 248.018C241.126 239.91 255.256 258.607 257.587 262.611C270.204 272.328 280.477 301.09 282.386 315.954C283.083 321.373 283.112 332.558 284.694 336.973C286.745 342.694 294.127 343.303 297.327 338.34C300.142 333.976 297.728 323.545 302.609 322.538C310.112 320.99 318.804 342.909 320.565 348.196C326.237 365.228 323.138 381.651 318.537 398.635C322.65 396.869 326.572 394.124 330.263 391.606C370.741 363.995 389.475 316.629 369.423 270.168L368.994 269.188C346.458 318.999 317.762 294.059 322.759 284.666C325.042 280.375 328.94 276.914 331.426 272.645C341.061 256.103 345.857 234.473 340.714 215.717C336.61 200.748 325.018 188.733 319.984 170.112C319.856 186.311 327.803 211.969 315.584 224.175C307.944 231.807 305.197 216.285 304.007 213.291C298.453 199.315 289.966 191.159 280.851 179.596C259.928 153.054 247.298 122.238 246.302 88.4167C246.199 84.9165 246.939 71.5402 246.276 69.186ZM249.787 269.188C251.423 311.739 206.48 328.252 199.795 360.406C196.854 374.548 202.679 400.755 207.301 414.431C208.945 398.461 214.273 397.419 208.704 380.097C210.871 369.895 220.6 377.21 226.026 380.097C226.973 359.18 235.73 349.887 247.157 333.963C249.467 330.743 255.089 317.079 261.008 324.681C262.863 327.065 261.442 330.608 260.767 333.191L260.807 333.552C261.33 338.603 260.425 343.616 261.224 348.727C263.071 360.542 275.512 373.292 281.504 385.129C282.602 382.977 283.69 379.932 286.222 379.175C294.276 376.766 293.349 389.166 294.657 393.704C296.752 400.975 300.49 408.233 302.592 415.726C311.234 391.451 318.438 367.175 306.871 342.787L306.749 342.529C299.298 356.07 278.862 355.5 274.741 339.53C273.067 333.044 273.395 324.025 272.491 317.029C270.776 303.748 261.53 277.282 249.787 269.188ZM249.787 346.185C248.287 349.664 245.885 352.782 243.894 356.001C225.928 385.058 246.292 395.067 242.924 402.326C241.753 404.851 238.538 405.854 236.104 404.616C233.942 403.516 228.632 394.005 221.744 389.717C221.886 398.115 219.652 404.647 218.026 412.768C214.348 431.136 225.749 447.452 243.815 451.289C261.759 455.951 285.945 448.972 291.123 429.1C293.861 418.593 289.835 408.19 285.678 398.635C284.802 400.957 283.931 403.445 281.528 404.608C273.732 408.382 273.994 393.97 272.29 390.211C266.933 378.393 255.629 368.073 252.602 356.772C252.02 354.6 251.261 347.342 249.787 346.185Z"/>
</svg>
