<?xml version="1.0" encoding="utf-8" ?>
<svg xmlns="http://www.w3.org/2000/svg" xmlns:xlink="http://www.w3.org/1999/xlink" width="1024" height="1024">
	<path fill="#FB7085" transform="scale(2 2)"
		d="M238.445 137.2C237.372 122.528 231.098 102.719 237.836 89.2925C240.73 83.5258 249.322 70.5242 255.376 68.5248C261.595 68.6142 271.199 83.6628 273.895 88.8009C281.035 102.409 275.22 121.948 273.594 137.2C280.617 137.179 287.262 136.657 293.34 140.787C309.72 151.919 305.056 176.162 282.677 180.166C282.802 189.498 283.884 198.844 284.071 208.193C286.401 206.219 288.552 204.037 290.897 202.08C308.583 187.322 336.026 185.462 356.403 195.162C380.069 206.427 386.88 221.75 394.802 244.178C398.599 244.753 404.662 246.234 406.518 249.747C409.179 254.782 397.783 258.088 394.802 259.447C394.799 279.654 387.112 296.054 376.933 313.02C351.481 355.441 311.803 396.929 274.955 430.46C269.499 435.424 264.9 440.007 257.312 441.194C241.463 442.228 200.408 394.277 189.468 382.269C159.558 349.44 120.542 306.191 116.674 259.447C101.689 252.793 103.605 246.88 118.386 244.178C125.961 198.025 179.816 172.199 219.317 201.026C222.293 203.198 225.032 205.75 227.789 208.193C227.603 198.866 228.934 189.517 228.971 180.166C210.21 177.687 201.971 156.443 214.968 143.422C221.732 136.645 229.617 137.154 238.445 137.2ZM256.262 80.1915C241.421 93.4891 243.85 102.746 246.051 119.642L249.666 147.421L257.312 147.421L262.62 147.421C264.179 139.964 268.712 105.395 267.928 99.8227C266.898 92.5084 260.742 85.7443 256.262 80.1915ZM228.591 146.752C217.692 149.568 213.854 163.256 224.615 169.321C229.637 172.152 246.126 170.757 252.134 170.758C261.853 170.76 283.095 173.555 289.994 166.988C294.509 161.642 294.507 153.949 288.754 149.463C284.313 146 278.201 146.722 272.915 146.752C271.835 149.859 271.061 154.425 267.765 155.941C264.182 157.59 248.475 157.469 244.774 156.021C241.057 154.565 240.449 150.221 240.117 146.752C236.324 146.724 232.366 146.45 228.591 146.752ZM245.761 180.166L238.445 180.166C238.48 191.472 237.311 202.884 236.667 214.177C236.245 221.584 238.849 231.971 230.954 234.586C229.165 233.895 227.9 233.147 226.527 231.771L226.505 231.443C225.852 220.008 227.294 221.064 217.018 211.797C185.485 183.361 143.158 201.965 129.495 239.166C133.66 237.919 137.962 236.323 141.949 234.586C144.478 218.964 161.688 216.183 168.88 226.826C170.541 229.282 171.378 232.24 172.92 234.781C180.272 246.898 190.812 247.754 202.806 247.72C228.379 247.647 244.843 266.589 264.085 261.289C273.675 258.568 281.829 252.658 291.33 250.042C302.108 247.076 307.496 248.726 317.055 247.698C341.786 245.041 339.646 225.639 350.972 222.193C360.393 219.328 368.617 225.323 370.597 234.586C374.63 236.147 378.661 237.709 382.734 239.166C373.754 209.628 342.724 192.129 312.92 201.358C303.118 204.394 291.218 212.283 286.52 221.676C283.916 226.881 287.86 231.964 280.822 234.451L280.434 234.586C278.816 233.985 276.869 233.324 276.061 231.66C275.534 230.575 273.628 185.837 272.915 180.166L245.761 180.166ZM155.546 230.525C145.294 235.431 158.79 240.941 157.741 244.778C155.82 251.801 147.504 248.61 144.696 244.178C137.951 246.468 130.843 248.872 124.396 251.886C131.034 255.023 137.982 257.498 144.696 260.462C147.685 257.407 151.425 254.955 155.546 257.352L155.723 257.622C160.647 265.293 148.568 265.429 151.766 271.467C156.168 279.779 161.61 269.766 163.385 266.039C166.421 259.669 172.965 256.424 177.992 251.886C163.281 247.009 163.965 229.903 155.546 230.525ZM354.528 231.771C351.878 232.696 351.139 234.608 349.997 236.972C346.25 244.728 340.718 248.633 333.801 253.394C339.943 256.426 344.768 260.659 348.33 266.556C351.455 271.73 352.698 276.495 359.645 272.851C362.759 265.291 355.063 266.379 354.528 260.462C355.106 257.298 356.32 255.792 359.645 255.67C363.247 256.667 365.297 258.223 367.42 261.289C374.055 257.878 381.072 255.29 387.692 251.886C380.962 249.327 374.228 246.504 367.42 244.178C363.946 249.511 355.341 252.224 354.015 245.213C353.118 240.465 361.314 240.249 360.855 235.749C360.523 232.502 357.317 231.296 354.528 231.771ZM197.167 257.352C169.03 259.995 174.824 275.921 164.325 281.584C154.692 286.781 141.199 281.479 141.949 269.522C136.853 268.212 132.258 265.062 127.097 264.351C137.064 310.872 166.495 343.649 198.524 377.449C211.579 391.226 224.696 404.732 238.497 417.775C242.63 421.682 246.992 426.297 251.767 429.389C258.88 433.994 266.069 424.593 270.87 420.264C279.367 412.603 287.569 404.648 295.603 396.503C325.228 366.029 379.862 308.94 384.589 264.351C379.872 266.285 375.332 268.716 370.597 270.571C367.373 285.773 350.983 289.425 342.971 276.925C341.635 274.841 340.633 272.532 339.221 270.502C328.409 254.962 305.399 254.815 289.548 261.561C278.4 266.305 269.331 272.692 256.371 272.559C234.896 272.337 220.2 254.327 197.167 257.352Z" />
	<path fill="#FB7085" transform="scale(2 2)"
		d="M252.244 280.06C253.244 279.432 254.294 278.986 255.376 278.524C262.868 277.889 261.226 286.172 261.672 290.969C262.727 302.317 266.94 314.348 275.836 321.888C283.855 328.685 285.19 326.816 276.482 335.17C267.95 343.357 262.908 357.99 261.897 369.367C261.433 374.59 263.046 379.989 257.312 382.456C249.254 384.549 250.59 375.314 250.238 370.403C249.378 358.427 244.471 344.037 235.818 335.636C228.419 328.453 226.969 329.079 236.427 322.141C244.83 315.977 249.424 302.724 250.506 292.874C250.941 288.912 250.424 283.582 252.244 280.06ZM256.262 310.893C253.289 318.223 249.324 323.856 243.591 329.257C249.667 335.338 252.377 342.705 256.262 350.12C260.099 340.227 262.575 337.3 268.167 329.257C261.904 321.324 260.999 318.713 256.262 310.893Z" />
</svg>
