<?xml version="1.0" encoding="utf-8" ?>
<svg xmlns="http://www.w3.org/2000/svg" xmlns:xlink="http://www.w3.org/1999/xlink" width="1024" height="1024">
	<path fill="#E09C4F" transform="scale(2 2)" d="M192.257 377.792L154.464 377.787C131.028 377.81 135.067 377.48 114.937 367.266L86.1658 352.855C82.6319 351.083 69.1889 345.031 66.9512 343.082C62.7142 339.392 67.3333 333.742 69.3428 330.145L87.6246 296.881C95.706 282.12 93.3795 284.413 108.531 276.157C113.658 273.364 149.401 253.989 151.121 251.724C154.714 246.992 167.93 209.977 170.968 202.595C182.633 174.243 185.478 173.841 212.551 165.796L290.987 142.086C300.289 139.305 314.255 133.932 323.345 133.552C332.308 131.961 365.415 140.192 371.046 143.362C372.717 144.303 391.313 163.781 393.14 166.388C395.777 170.151 398.354 179.258 400 183.944L406.275 201.399C410.617 213.42 446.638 309.898 445.675 314.916C444.749 319.747 432.044 361.327 429.299 362.232C426.296 363.222 409.737 362.487 405.209 362.341L372.352 361.059C367.012 360.839 307.707 359.476 306.523 360.056C298.014 364.221 289.072 374.424 279.793 378.05C275.761 379.625 200.575 377.766 192.257 377.792ZM325.206 144.106C318.711 144.66 311.968 147.329 305.734 149.232L211.971 177.304C183.4 185.787 187.542 192.05 176.801 218.232L167.492 241.245C165.622 245.828 163.541 250.399 161.903 255.068C168.714 261.7 175.687 268.147 182.534 274.737C195.976 287.673 191.206 286.399 208.459 291.41C238.263 300.068 237.119 294.309 246.964 324.548C251.174 324.202 271.519 322.251 274.123 322.864C277.585 323.678 298.964 344.87 302.249 348.74C303.545 348.745 304.846 348.774 306.141 348.74C315.263 348.723 324.333 349.08 333.448 349.304L363.3 349.898C371.683 350.087 380.336 350.752 388.707 350.254C386.279 338.538 383.674 326.138 380.977 314.496C371.337 308.925 358.966 302.562 348.966 297.783C341.974 303.194 323.562 317.426 315.869 321.389C310.538 324.135 305.123 316.35 309.543 312.413C317.824 305.037 332.241 296.486 341.687 289.29C341.911 275.507 341.668 262.509 335.932 249.909L329.228 235.239C327.573 231.707 324.13 226.223 323.597 222.61C322.907 217.921 339.995 160.677 345.705 148.054C339.072 146.391 332.084 144.106 325.206 144.106ZM356.548 150.354C349.602 169.355 344.781 185.199 339.532 205.008C338.035 210.655 335.834 216.507 335.059 222.291C337.681 226.35 351.089 254.857 351.718 258.689C353.223 267.856 352.328 277.916 353.083 287.245C359.809 290.424 384.161 302.191 389.47 306.638C392.063 308.81 398.788 344.82 400.273 350.254C404.647 351.007 408.955 351.18 413.383 351.313C416.412 351.404 419.406 351.469 422.434 351.313C426.563 339.108 429.856 326.536 434.448 314.496L388.84 185.464C387.386 181.411 386.112 176.999 384.053 173.217C382.276 169.954 366.742 153.652 363.783 152.276C361.548 151.237 358.948 150.863 356.548 150.354ZM153.994 263.715C149.039 265.957 144.317 268.867 139.591 271.554L119.536 282.842C100.837 293.335 105.261 288.008 94.9971 306.682C89.5234 316.641 84.1293 326.624 78.4053 336.444C93.677 343.446 108.529 351.667 123.568 359.193C143.313 369.073 139.04 366.697 161.903 366.728L200.258 366.728C212.694 354.579 224.178 341.383 237.023 329.664L232.064 316.77C231.133 314.345 230.287 311.726 229.105 309.417C219.78 305.677 209.493 303.535 199.88 300.558C188.67 297.087 189.422 296.634 180.908 288.631C178.32 286.199 155.012 263.971 153.994 263.715ZM269.894 334.549C262.241 334.555 254.595 335.841 246.964 335.513C239.024 341.63 221.925 359.736 215.681 367.183L240.054 367.183C244.349 367.183 274.916 367.641 276.665 366.969C280.229 365.6 290.439 357.729 293.863 355.174C289.977 351.911 272.726 335.157 271.155 334.415L269.894 334.549Z"/>
	<path fill="#E09C4F" transform="scale(2 2)" d="M285.583 190.76C281.656 191.126 277.447 187.671 279.234 183.46C280.674 180.069 292.264 174.825 295.922 173.287C300.142 172.904 304.594 176.462 302.034 180.949C300.205 184.153 289.26 189.67 285.583 190.76Z"/>
	<path fill="#E09C4F" transform="scale(2 2)" d="M231.786 212.197C226.041 212.971 221.998 207.909 225.104 203.774C227.335 200.804 234.77 200.435 238.37 199.825C242.951 199.038 247.642 203.878 244.506 208.185C242.259 211.271 235.278 211.603 231.786 212.197Z"/>
	<path fill="#E09C4F" transform="scale(2 2)" d="M380.977 250.579C374.77 251.565 373.558 247.392 370.087 243.284C365.801 238.212 351.266 227.045 362.037 222.291C368.942 222.043 380.688 237.473 383.714 242.505C385.384 245.28 383.661 249.15 380.977 250.579Z"/>
	<path fill="#E09C4F" transform="scale(2 2)" d="M207.465 265.167C193.831 266.077 206.086 245.582 212.9 243.781C226.509 244.15 213.384 262.884 207.465 265.167Z"/>
	<path fill="#E09C4F" transform="scale(2 2)" d="M283.723 275.765C276.84 276.451 257.855 262.709 271.064 258.28C277.473 258.361 297.004 271.367 283.723 275.765Z"/>
	<path fill="#E09C4F" transform="scale(2 2)" d="M117.676 326.754C113.361 326.858 109.633 322.888 111.935 318.537C113.343 315.875 126.183 306.478 129.091 305.546C133.091 305.476 137.223 309.158 134.986 313.363C133.44 316.271 120.78 325.721 117.676 326.754Z"/>
</svg>
