<?xml version="1.0" encoding="utf-8" ?>
<svg xmlns="http://www.w3.org/2000/svg" xmlns:xlink="http://www.w3.org/1999/xlink" width="1024" height="1024">
	<path fill="#000A21" transform="scale(2 2)" d="M269.191 338.579C263.597 332.108 257.073 326.242 250.998 320.209L130.816 199.727C126.582 195.474 104.054 173.642 102.907 171.175C101.472 168.087 101.155 163.713 100.428 160.373L85.2593 92.21C83.4323 84.2654 75.2834 64.8595 83.4999 61.0578C87.1957 60.4918 104.3 66.2274 108.983 67.5012L162.397 81.6116C190.279 88.9724 181.512 82.4822 197.991 105.743L283.216 224.735C298.563 246.121 313.745 267.581 329.614 288.588C332.847 285.936 336.551 283.325 339.269 280.145C346.449 271.747 335.424 256.069 347.118 256.057C360.037 256.045 372.091 274.538 371.907 287.123C371.641 305.238 356.907 312.494 345.802 323.469L345.493 323.777C350.454 328.882 354.947 334.524 359.467 340.021L391.327 377.537C394.367 381.098 397.543 384.598 400.4 388.307C416.514 382.95 434.044 393.195 431.914 410.738C430.726 420.519 423.533 424.886 416.396 430.471C412.59 433.599 408.57 436.473 404.71 439.535C396.17 446.31 389.728 453.068 377.772 449.56C365.681 446.013 359.916 433.096 363.454 421.394C345.489 400.408 324.958 376.637 305.672 356.738C293.796 366.42 284.925 378.215 267.903 377.221C259.282 376.718 251.269 372.916 245.57 366.417C242.145 362.511 235.151 353.449 240.885 348.737C245.317 345.096 251.126 354.358 269.191 338.579ZM93.7008 75.2292C97.5139 93.3348 101.91 111.332 105.891 129.403L111.548 155.252C112.343 158.821 112.95 162.488 113.913 166.011C133.41 186.016 153.406 205.587 173.163 225.337L278.357 331.264C281.298 328.81 284.182 326.285 287.077 323.777L159.099 170.823C157.451 168.862 155.846 166.7 154.018 164.909C149.605 163.815 140.18 163.582 137.619 159.508C135.939 156.836 130.898 140.381 131.5 137.766C132.163 134.886 140.268 127.467 142.625 124.815C144.368 122.996 145.882 121.426 148.153 120.274C152.782 120.329 165.824 122.599 169.762 124.815C176.031 129.173 179.875 138.016 178.178 145.778L297.04 288.046C301.587 293.396 306.252 298.637 310.695 304.076C313.962 301.481 317.287 298.934 320.466 296.233L190.592 115.537C187.248 110.852 180.235 102.317 178.178 97.3956C152.092 92.0326 119.162 83.1495 93.7008 75.2292ZM151.433 132.25C148.655 134.777 146.235 137.717 143.737 140.519C144.792 144.181 145.698 147.927 146.858 151.553C150.764 152.566 155.121 154.157 159.17 153.257C166.549 161.039 173.257 169.673 180.034 177.992L271.14 286.729C279.259 296.27 286.948 306.234 295.279 315.584L295.733 315.777C297.669 314.859 299.616 312.808 301.316 311.46C296.968 305.547 291.935 300.003 287.225 294.372L175.745 161.422C172.217 157.171 168.768 152.799 165.108 148.663C165.707 145.963 166.267 143.263 166.625 140.519C165.488 138.154 164.195 136.015 162.599 133.932C159.025 133.049 155.13 132.298 151.433 132.25ZM354.024 273.828C352.137 286.2 346.718 289.208 337.726 296.582L292.635 334.131C280.565 344.314 270.749 355.463 255.162 359.734C257.351 361.542 259.584 363.201 262.227 364.289C275.955 368.907 284.094 360.115 293.626 351.914L336.296 315.933C343.055 310.282 350.554 304.848 356.314 298.16C361.513 292.124 361.666 278.153 354.024 273.828ZM336.515 331.264C329.008 336.939 321.965 343.336 314.643 349.258C317.296 352.448 337.174 375.513 338.608 375.956L338.979 375.793C346.525 370.784 354.041 365.224 361.253 359.734C358.554 356.572 337.675 331.54 336.515 331.264ZM368.428 368.684C361.258 374.233 353.88 379.585 346.444 384.773C354.389 393.628 362.471 402.358 370.012 411.563L370.433 411.615C376.899 405.788 384.192 400.665 391.004 395.226C387.976 391.959 369.747 369.163 368.428 368.684ZM407.602 398.306C402.287 399.828 377.145 420.044 375.208 423.397C370.791 431.043 377.895 440.206 386.497 438.35C391.079 436.318 418.364 414.826 419.568 411.943C422.934 403.883 414.915 397.887 407.602 398.306Z"/>
</svg>
