<?xml version="1.0" encoding="utf-8" ?>
<svg xmlns="http://www.w3.org/2000/svg" xmlns:xlink="http://www.w3.org/1999/xlink" width="1024" height="1024">
	<path fill="#FFD700" transform="scale(2 2)"
		d="M258.568 360.321C248.604 359.414 236.323 369.223 227.904 373.953L158.779 412.729C155.729 414.408 150.188 418.671 146.56 417.164C139.856 414.379 145.576 400.528 146.701 394.95L162.418 320.141C166.685 300.471 171.261 296.754 155.298 283.247L90.7563 228.881C88.2183 226.731 80.1082 221.116 79.0236 218.11C75.2832 207.742 97.7789 207.711 103.985 206.712C125.09 203.315 146.239 200.212 167.404 197.214L186.237 194.537C200.708 192.482 201.995 192.619 208.008 179.966L244.236 104.82C246.765 99.6817 249.732 89.6635 255.108 87.7973C261.896 87.6544 265.827 101.552 268.587 107.214L293.382 157.64C298.034 167.29 302.161 177.313 307.246 186.733C311.28 194.208 322.586 194.306 329.93 195.364L413.734 207.609C421.85 208.833 432.055 207.041 434.38 215.421C432.671 221.888 425.565 225.645 420.752 229.764C403.654 244.4 386.048 258.372 368.887 272.916C348.729 290.001 342.422 287.552 348.262 313.783L351.606 329.35C352.997 336.085 369.766 411.43 369.108 414.274C367.3 422.099 358.103 415.219 354.899 413.348L280.568 371.813C275.103 368.737 264.33 361.653 258.883 360.391L258.568 360.321ZM102.129 225.193L102.129 225.193L102.277 225.348C107.257 230.457 113.428 234.825 118.898 239.411L154.303 269.133C173.641 285.235 179.926 286.297 174.209 313.404L162.329 370.206C160.889 377.318 159.123 384.472 158.019 391.636C160.983 387.107 164.367 382.809 167.559 378.436L193.46 342.613C195.574 339.679 199.988 331.748 203.706 330.908C208.143 329.906 211.294 334.444 209.097 338.218C204.791 345.613 198.819 352.296 193.805 359.248C185.013 371.439 176.986 384.466 167.34 396.001C177.429 390.525 187.335 384.789 197.336 379.166L237.684 356.613C258.406 345.093 262.372 349.929 280.96 360.202L335.597 390.541C337.882 391.833 340.279 393.458 342.701 394.443L342.701 394.443L342.701 394.443C339.581 387.93 328.689 375.147 323.942 368.542L294.658 328.228C286.379 316.724 278.268 304.934 269.494 293.806C267.047 298.302 262.022 314.218 257.812 316.173C250.927 319.369 244.357 297.931 242.139 292.803C239.624 296.882 223.327 320.058 219.89 320.617C216.136 321.228 213.114 316.869 214.845 313.564C218.639 306.318 229.792 292.866 234.964 286.268C190.975 286.507 204.987 279.907 222.986 259.083C218.445 258.275 213.991 256.885 209.564 255.598L111.924 227.682C108.742 226.77 105.413 225.623 102.129 225.193L102.129 225.193ZM260.78 114.799L260.793 141.53C260.796 145.893 263.007 157.449 255.807 157.325C248.946 157.206 250.862 146.193 250.869 141.891C250.883 132.872 251.15 123.811 250.894 114.799C247.166 121.694 243.789 128.854 240.349 135.899L216.711 184.866C206.592 205.924 198.07 202.726 177.152 206.025L126.793 213.623C121.117 214.53 115.384 215.288 109.745 216.395C115.936 217.85 122.014 219.887 128.101 221.725C160.634 231.547 195.962 239.294 227.702 250.544C225.514 242.422 216.129 220.818 226.118 217.597C232.266 219.371 246.003 227.111 250.894 231.315L250.894 212.637L250.897 185.977C250.894 182.64 250.428 178.555 250.838 175.308C251.554 169.643 259.991 169.426 260.668 175.346C261.248 180.414 260.79 188.363 260.79 193.687L260.78 231.315C266.933 227.652 280.199 218.828 286.661 217.597C289.641 218.294 291.601 219.326 291.279 222.67C290.748 228.174 287.612 237.317 285.979 242.724L284.055 249.01C290.315 248.015 296.631 245.924 302.764 244.294L337.71 234.915C355.954 229.979 385.166 223.901 401.968 216.395C395.245 215.54 388.607 214.335 381.911 213.322L327.566 205.337C304.241 201.709 302.336 200.137 292.803 180.174L267.674 128.012C266.427 125.477 262.418 116.49 260.78 114.799ZM408.253 226.553C399.567 228.539 391.053 231.21 382.455 233.529L330.307 247.589C315.509 251.613 300.593 255.858 285.601 259.083C290.295 262.93 310.524 275.395 304.847 281.405C302.48 283.911 281.158 286.175 276.382 286.268C290.621 306.789 307.212 326.624 320.918 347.151L346.435 381.888C349.096 385.491 351.986 388.937 354.591 392.579L340.139 324.073C332.39 286.048 332.801 290.158 360.964 266.338C366.569 261.597 408.439 226.787 408.499 226.583L408.253 226.553ZM232.715 231.315C235.405 240.285 238.454 249.201 240.886 258.243C233.804 264.045 226.524 269.904 219.94 276.259C228.918 276.27 237.794 275.96 246.756 275.742C248.298 281.195 253.638 295.831 256.545 300.37C258.307 292.526 263.191 283.694 265.526 275.742C270.353 274.731 283.356 275.811 290.151 275.036C283.693 269.648 277.015 264.566 270.63 259.083C273.29 250.487 275.709 241.851 277.998 233.149C270.761 237.617 262.942 241.84 256.545 247.486C248.546 242.906 240.603 235.048 232.715 231.315Z" />
	<path fill="#FFD700" transform="scale(2 2)"
		d="M154.085 187.35C147.871 185.701 149.702 181.331 149.095 176.388C145.85 150.013 112.484 162.336 116.802 149.905C118.959 143.696 145.5 151.042 148.789 125.846C149.369 121.408 148.145 117.158 152.793 114.799C160.303 113.944 158.94 121.743 159.817 126.835C164.121 151.837 188.976 142.556 189.84 151.123C190.927 161.898 163.438 151.82 159.576 176.942C158.873 181.513 160.122 186.718 154.085 187.35ZM154.085 140.458C150.79 144.956 147.309 148.865 142.415 151.674C147.401 154.478 150.978 157.663 154.085 162.459C157.801 158.369 161.011 154.791 165.641 151.674C160.929 148.678 157.51 144.802 154.085 140.458Z" />
</svg>
