<?xml version="1.0" encoding="utf-8" ?>
<svg xmlns="http://www.w3.org/2000/svg" xmlns:xlink="http://www.w3.org/1999/xlink" width="1024" height="1024">
	<path fill="#9498B5" transform="scale(2 2)" d="M280.314 160.972C283.581 143.226 305.852 130.901 322.431 130.755C345.714 129.494 364.592 147.986 367.726 170.331C387.524 169.931 405.61 189.603 408.413 208.124C455.644 197.67 477.736 267.485 428.001 285.599C431.506 293.737 433.752 300.433 433.731 309.483C433.674 334.089 414.519 355.429 389.859 357.39C385.201 357.76 380.437 357.528 375.763 357.512L354.174 357.501C351.504 359.235 348.981 361.184 346.28 362.882C319.35 379.802 291.841 374.567 269.418 354.349C247.124 376.111 221.541 382.428 191.72 380.166C172.916 376.359 157.926 370.642 143.491 357.501C120.389 356.877 93.86 361.878 74.9447 346.785C40.0341 318.929 54.2185 261.829 100.673 257.12C99.1888 222.186 118.749 193.666 154.83 189.612C161.52 161.81 184.855 139.725 214.243 138.744C235.808 138.024 249.062 145.802 263.832 159.664C269.612 158.674 274.722 159.548 280.314 160.972ZM321.997 141.509C290.315 142.471 290.91 172.999 283.925 173.347C280.62 173.512 276.109 171.117 272.777 170.331C276.711 178.595 279.575 185.717 280.314 195.021C298.763 194.108 315.586 202.295 321.997 220.223C346.801 220.098 369.33 235.155 373.901 260.209C384.439 257.462 397.055 259.289 406.599 264.557C412.399 267.5 416.534 271.543 421.324 275.792C462.165 267.548 446.399 210.895 411.834 218.428C406.688 219.55 402.881 222.429 398.742 217.875C397.967 214.696 397.958 211.402 397.313 208.202C394.588 194.693 382.732 183.192 369.096 180.891C355.101 178.529 359.683 181.618 356.633 167.983C353.536 154.137 336.661 138.221 321.997 141.509ZM215.797 149.501C193.445 149.975 175.177 164.734 167.181 185.005C159.071 205.566 169.879 195.854 149.647 201.388C127.605 207.417 110.487 226.075 111.029 249.719C111.133 254.274 112.389 258.63 112.631 263.12L112.495 263.442C110.028 269.173 104.437 267.211 99.3382 268.018C61.6165 273.985 53.5581 325.281 87.4553 342.261C96.9893 347.036 105.499 346.646 115.804 346.611L133.299 346.589C130.154 342.178 122.763 332.591 123.756 327.036C124.516 322.785 130.834 321.682 133.129 325.238C135.482 328.882 136.768 333.003 139.283 336.679C169.46 380.783 236.546 379.791 268.498 339.007C271.921 334.469 279.141 320.77 280.83 319.043C283.399 316.414 289.233 318.335 289.624 322.056C290.289 328.385 279.913 341.355 276.292 346.589C296.254 363.038 320.302 368.565 342.384 352.774C352.679 345.412 349.33 346.618 362.025 346.61L378.326 346.597C392.785 346.598 404.335 345.439 414.435 333.098C438.382 303.838 407.486 261.815 375.865 270.909C363.965 274.331 365.583 273.222 363.171 262.259C359.289 244.622 343.396 231.183 325.156 230.939C312.075 230.765 315.928 232.356 311.479 222.026C303.528 203.568 289.236 205.939 274.424 207.267C267.693 204.651 270.431 198.052 268.927 191.222C264.004 168.858 239.638 147.378 215.797 149.501Z"/>
	<path fill="#9498B5" transform="scale(2 2)" d="M134.699 260.209C135.589 262.495 137.234 264.793 137.671 267.204C138.783 273.338 125.792 280.379 122.813 255.264C120.238 233.565 134.996 213.8 156.905 211.347C162.24 210.586 184.628 212.694 179.502 221.912C177.251 225.96 173.205 224.332 169.866 223.258C146.671 215.796 127.618 238.255 134.699 260.209Z"/>
	<path fill="#9498B5" transform="scale(2 2)" d="M349.497 264.557C341.254 263.475 342.318 247.23 316.029 250.765C312.506 251.239 304.137 253.937 301.13 252.426C296.575 250.136 300.963 241.068 290.237 236.029C284.819 233.484 287.26 227.793 291.863 226.294C300.353 225.749 305.728 234.205 308.032 241.315C319.294 238.874 331.107 237.771 341.489 243.795C347.266 247.147 363.225 261.636 349.497 264.557Z"/>
	<path fill="#9498B5" transform="scale(2 2)" d="M401.183 315.181C398.965 312.604 399.63 308.519 398.965 305.336C396.798 294.964 386.411 289.307 376.391 291.354C368.715 292.922 361.147 282.063 378.805 279.845C392.965 278.022 406.778 289.931 409.828 303.225C411.385 310.012 410.218 321.481 401.183 315.181Z"/>
	<path fill="#9498B5" transform="scale(2 2)" d="M302.15 351.766C298.144 350.515 293.938 348.799 295.544 343.683C297.943 336.039 318.068 350.244 336.156 331.839C338.063 329.898 339.782 327.747 342.273 326.548C346.199 326.115 350.066 327.905 349.18 332.377C348.229 337.175 339.727 343.8 335.722 346.316C325.191 352.934 314.185 354.506 302.15 351.766Z"/>
	<path fill="#9498B5" transform="scale(2 2)" d="M175.194 347.226C166.277 344.808 166.181 334.659 178.251 337.025C189.43 339.216 200.57 339.298 211.242 334.793C214.576 333.386 217.663 331.128 221.101 330.047C227.45 329.86 229.62 337.429 221.658 341.942C207.908 349.736 190.293 351.388 175.194 347.226Z"/>
</svg>
