<?xml version="1.0" encoding="utf-8" ?>
<svg xmlns="http://www.w3.org/2000/svg" xmlns:xlink="http://www.w3.org/1999/xlink" width="1024" height="1024">
	<path fill="#80A4BE" transform="scale(2 2)" d="M257.37 328.112C219.802 329.242 185.748 305.191 172.46 270.277C159.961 237.439 169.422 216.259 183.292 185.39C199.601 149.093 219.078 114.768 239.516 80.7133C242.49 75.7567 250.032 60.1585 254.999 58.2724C256.176 58.2386 257.524 58.1675 258.499 58.933C262.438 62.0254 290.316 110.724 294.122 117.366C308.373 142.238 344.199 207.282 345.482 236.409C346.463 258.672 335.58 284.594 320.63 300.779C303.456 319.373 281.942 327.159 257.37 328.112ZM256.117 72.9582C252.419 77.7398 249.332 83.2701 246.204 88.4437C228.07 118.443 172.42 212.168 176.808 247.211C181.871 287.65 215.237 318.275 256.117 318.328C283.132 317.834 308.276 305.019 322.57 281.948C339.463 254.685 338.372 236.347 327.665 208.378C310.897 164.577 287.202 123.399 262.681 83.5002C260.539 80.0158 257.956 76.5933 256.117 72.9582Z"/>
	<path fill="#80A4BE" transform="scale(2 2)" d="M308.542 244.582C308.3 223.141 281.44 176.808 269.603 157.37L261.201 143.803C258.387 139.293 251.416 131.361 260.172 128.779C264.801 128.953 267.21 134.909 269.384 138.294C284.612 162.008 308.476 201.319 315.819 228.977C324.201 260.543 294.933 302.769 261.661 298.453C258.882 297.638 256.84 295.425 256.621 292.435C255.824 281.569 288.439 289.395 298.922 254.486C301.139 247.101 299.799 244.45 308.542 244.582Z"/>
	<path fill="#80A4BE" transform="scale(2 2)" d="M375.629 376.288C336.203 471.437 192.736 477.989 141.633 388.35C137.152 380.492 120.356 338.289 131.293 332.292C137.713 331.828 137.397 337.051 140.612 341.014C150.737 353.495 180.244 352.963 189.029 339.609C191.272 336.2 190.588 331.063 196.45 332.343C200.004 333.118 200.316 337.933 202.152 340.498C211.756 353.914 240.881 352.912 250.025 339.956C252.26 336.79 252.102 331.451 257.464 332.883C260.9 333.801 261.431 337.979 263.09 340.587C271.16 353.278 301.17 352.649 309.97 340.168C314.905 333.169 314.937 325.344 322.969 339.294C330.72 352.758 353.708 352.229 365.423 345.35C373.628 340.531 372.868 334.442 375.762 332.848C378.098 331.561 381.355 332.772 382.437 335.152C386.149 343.316 378.541 368.503 375.629 376.288ZM195.272 348.249C179.061 361.567 157.289 364.097 139.155 353.408C141.517 364.554 145.274 375.499 151.268 385.253C163.572 384.81 162.926 383.885 172.013 378.096C187.825 368.022 213.151 368.01 229.426 376.622C231.922 377.943 234.038 379.833 236.385 381.382C245.501 387.399 267.294 386.549 276.463 381.228C292.934 371.67 302.668 368.175 323.059 371.793C328.132 372.872 333.123 374.297 337.69 376.815C347.038 381.97 347.452 385.464 360.217 385.253C365.631 374.304 369.441 365.495 371.905 353.408C358.355 360.019 346.423 362.646 331.694 357.63C326.933 356.009 319.348 353.181 317.197 348.249C314.324 350.412 311.488 352.706 308.36 354.495C293.054 363.252 268.542 361.545 256.117 348.249C245.384 362.749 214.18 362.705 200.289 352.381C199.045 351.456 196.49 348.673 195.272 348.249ZM197.892 380.521C178.346 382.69 175.28 391.659 157.726 395.121C190.663 443.125 264.115 453.685 314.414 428.396C329.637 420.151 343.323 409.089 353.664 395.121C344.154 393.034 341.118 391.156 333.19 386.103C321.113 378.405 300.505 378.924 288.426 385.672C285.098 387.531 282.13 389.889 278.589 391.376C265.87 396.72 246.873 396.756 234.022 391.162C219.863 384.999 217.082 378.566 197.892 380.521Z"/>
</svg>
