<?xml version="1.0" encoding="utf-8" ?>
<svg xmlns="http://www.w3.org/2000/svg" xmlns:xlink="http://www.w3.org/1999/xlink" width="1024" height="1024">
	<path fill="#818CF8" transform="scale(2 2)"
		d="M271.318 177.33C259.382 177.939 259.41 168.298 258.958 159.086L257.233 126.077C256.694 117.291 254.501 107.221 265.841 104.793C274.104 104.498 286.434 113.612 296.757 113.719L366.625 113.744C369.983 113.747 373.47 113.941 376.803 113.551C385.132 112.578 395.025 105.367 403.282 105.122C416.671 104.725 413.73 120.204 413.004 128.447L410.849 151.503C409.936 161.513 412.581 177.577 398.077 177.33C393.132 207.324 384.643 258.221 395.584 286.392C401.064 300.505 404.935 310.269 404.904 325.709C404.892 332.174 402.67 338.066 402.542 344.371C402.251 358.607 403.423 374.42 402.471 388.361C401.246 406.305 385.473 406.816 372.302 406.793L328.38 406.791C315.432 406.803 299.168 407.812 296.334 390.353C295.874 387.514 296.23 381.927 292.63 380.913C288.299 379.694 270.514 388.459 265.841 391.135C226.069 411.726 201.873 411.744 157.271 398.587C141.963 394.072 103.715 381.145 98.3951 365.012C95.8944 357.428 99.7403 346.878 107.784 344.321C111.153 325.644 124.881 310.049 142.336 303.093C164.141 294.403 183.431 301.315 204.782 296.012C242.479 286.647 266.536 250.273 270.424 213.088C271.666 201.207 271.328 189.256 271.318 177.33ZM266.561 114.638C266.381 120.359 267.044 126.101 267.352 131.811L269.311 167.691C274.403 167.855 279.532 167.696 284.628 167.693L314.872 167.691C316.995 156.279 332.239 143.267 344.396 145.723C352.014 147.263 364.753 159.703 365.844 167.691L390.244 167.691L400.288 167.691C399.933 161.097 400.781 154.433 401.378 147.872L402.94 129.003C403.347 124.266 404.047 119.392 403.685 114.638C384.529 120.627 386.484 123.859 365.43 123.826L307.978 123.807C285.446 123.802 285.952 120.762 266.561 114.638ZM339.412 155.079C334.309 155.777 323.018 165.45 324.125 171.741C324.919 176.258 334.77 186.967 341.281 186.743C345.875 185.659 353.261 177.842 355.376 174.444C359.796 167.346 346.954 155.187 339.412 155.079ZM281.421 177.33C281.175 186.735 280.668 201.093 281.421 210.33C287.48 211.803 293.859 211.948 299.48 208.979C302.998 207.121 308.141 202.735 311.23 207.715C313.547 211.45 307.618 232.963 303.073 235.372C300.733 236.614 297.751 235.488 296.667 233.09C295.16 229.76 299.123 223.582 300.134 220.168C292.538 221.384 287.102 221.922 279.485 220.168C276.164 241.475 271.265 248.508 262.083 265.808C268.404 267.604 275.161 268.04 281.489 266.006C286.206 264.491 289.675 262.347 292.208 268.137C291.108 275.07 286.638 286.907 280.825 291.254C277.522 293.724 271.758 291.118 272.622 286.721C273.228 283.634 277.8 279.696 279.485 276.773C270.249 277.031 264.92 276.92 256.063 273.764C230.893 304.209 210.274 307.421 174.904 307.967C182.942 329.933 190.474 346.236 184.899 371.15C189.384 371.887 193.923 372.559 198.31 373.763C224.098 373.066 225.897 374.192 250.582 360.6C272.123 348.74 286.468 346.233 310.511 346.25L392.549 346.255C392.233 341.068 393.589 336.508 394.323 331.451C396.795 314.416 391.64 303.51 385.703 288.816C373.65 258.98 383.6 208.466 388.035 177.33L364.891 177.33C363.548 182.634 353.833 191.309 349.575 193.832C338.076 200.648 330.316 194.192 322.206 186.156C319.442 183.418 316.915 181.173 315.856 177.33L281.421 177.33ZM162.917 308.613C140.229 310.485 124.681 322.9 118.229 344.321C126.549 349.173 134.813 353.72 143.688 357.499C153.975 361.692 164.344 364.93 174.904 368.33C179.546 352.337 174.492 333.309 168.333 318.289C167.527 316.323 165.402 309.623 163.611 308.571L162.917 308.613ZM112.118 353.245C101.225 359.56 112.032 367.458 118.722 371.495C151.18 391.082 211.439 406.464 247.125 389.293C258.918 383.618 292.725 360.532 303.579 377.075C311.239 388.75 298.259 396.907 324.357 396.852L366.869 396.829C373.341 396.832 382.052 398.058 388.035 395.039C393.958 389.607 392.585 383.355 392.559 376.114L392.549 356.574L310.116 356.564C288.259 356.53 274.317 359.005 254.794 370.024C238.084 379.456 228.48 384.429 207.875 384.05C180.983 383.555 144.52 371.266 120.772 357.6C118.388 356.228 114.968 353.199 112.118 353.245Z" />
</svg>
